<svg width="128" height="27" viewBox="0 0 128 27" fill="none" xmlns="http://www.w3.org/2000/svg">
<path d="M0.168 18L3.744 1.2H9.24C10.36 1.2 11.392 1.384 12.336 1.752C13.28 2.12 14.104 2.64 14.808 3.312C15.512 3.984 16.056 4.776 16.44 5.688C16.824 6.6 17.016 7.6 17.016 8.688C17.016 9.952 16.76 11.152 16.248 12.288C15.736 13.408 15.032 14.4 14.136 15.264C13.256 16.112 12.232 16.784 11.064 17.28C9.896 17.76 8.648 18 7.32 18H0.168ZM4.224 14.904H7.608C8.424 14.904 9.184 14.752 9.888 14.448C10.592 14.144 11.208 13.72 11.736 13.176C12.28 12.616 12.704 11.976 13.008 11.256C13.312 10.536 13.464 9.76 13.464 8.928C13.464 8.016 13.264 7.216 12.864 6.528C12.48 5.824 11.936 5.28 11.232 4.896C10.544 4.496 9.752 4.296 8.856 4.296H6.48L4.224 14.904ZM22.3341 18.192C21.3581 18.192 20.5261 17.968 19.8381 17.52C19.1661 17.056 18.6941 16.432 18.4221 15.648C18.1501 14.864 18.1181 13.968 18.3261 12.96L19.9101 5.496H23.1261L21.6141 12.648C21.4381 13.48 21.5421 14.152 21.9261 14.664C22.3261 15.16 22.9261 15.408 23.7261 15.408C24.2381 15.408 24.7101 15.312 25.1421 15.12C25.5901 14.912 25.9901 14.624 26.3421 14.256L28.2141 5.496H31.4301L28.7661 18H25.5501L25.7421 17.088C24.7021 17.824 23.5661 18.192 22.3341 18.192ZM37.6708 18.168C36.6308 18.168 35.6868 17.92 34.8388 17.424C34.0068 16.912 33.3428 16.216 32.8468 15.336C32.3508 14.456 32.1028 13.472 32.1028 12.384C32.1028 11.408 32.2788 10.496 32.6308 9.648C32.9988 8.784 33.5028 8.032 34.1428 7.392C34.7828 6.752 35.5268 6.248 36.3748 5.88C37.2228 5.512 38.1188 5.328 39.0628 5.328C39.7988 5.328 40.4868 5.44 41.1268 5.664C41.7828 5.888 42.3508 6.216 42.8308 6.648L43.9828 1.2L47.3668 0.48L43.6468 18H40.4548L40.5748 17.376C39.6628 17.904 38.6948 18.168 37.6708 18.168ZM38.5348 15.384C39.0468 15.384 39.5188 15.304 39.9508 15.144C40.3988 14.984 40.8068 14.744 41.1748 14.424L42.2308 9.48C41.9108 9.08 41.4788 8.76 40.9348 8.52C40.3908 8.264 39.8068 8.136 39.1828 8.136C38.4628 8.136 37.8068 8.32 37.2148 8.688C36.6228 9.04 36.1508 9.512 35.7988 10.104C35.4468 10.696 35.2708 11.36 35.2708 12.096C35.2708 12.72 35.4068 13.288 35.6788 13.8C35.9668 14.296 36.3588 14.688 36.8548 14.976C37.3508 15.248 37.9108 15.384 38.5348 15.384ZM53.2262 18.24C52.0102 18.24 50.9222 17.992 49.9622 17.496C49.0182 16.984 48.2742 16.28 47.7302 15.384C47.1862 14.472 46.9142 13.448 46.9142 12.312C46.9142 11.352 47.0902 10.448 47.4422 9.6C47.7942 8.752 48.2822 8.008 48.9062 7.368C49.5302 6.712 50.2502 6.208 51.0662 5.856C51.8822 5.488 52.7542 5.304 53.6822 5.304C54.7862 5.304 55.7622 5.568 56.6102 6.096C57.4582 6.608 58.1222 7.312 58.6022 8.208C59.0822 9.104 59.3222 10.144 59.3222 11.328C59.3222 11.504 59.3142 11.696 59.2982 11.904C59.2982 12.112 59.2662 12.424 59.2022 12.84H50.1302C50.2262 13.368 50.4262 13.84 50.7302 14.256C51.0342 14.656 51.4182 14.968 51.8822 15.192C52.3622 15.416 52.8982 15.528 53.4902 15.528C54.0182 15.528 54.5142 15.448 54.9782 15.288C55.4422 15.128 55.8502 14.904 56.2022 14.616L58.0022 16.704C57.2342 17.248 56.4742 17.64 55.7222 17.88C54.9702 18.12 54.1382 18.24 53.2262 18.24ZM50.3222 10.512H56.2982C56.2022 10.016 56.0262 9.584 55.7702 9.216C55.5142 8.848 55.1942 8.56 54.8102 8.352C54.4262 8.144 53.9942 8.04 53.5142 8.04C53.0342 8.04 52.5782 8.144 52.1462 8.352C51.7302 8.56 51.3622 8.848 51.0422 9.216C50.7382 9.584 50.4982 10.016 50.3222 10.512ZM65.5658 18.264C64.4138 18.264 63.3098 18.072 62.2538 17.688C61.1978 17.304 60.3257 16.784 59.6377 16.128L61.4858 14.04C62.1578 14.616 62.8298 15.048 63.5018 15.336C64.1898 15.624 64.8858 15.768 65.5898 15.768C66.2458 15.768 66.7738 15.64 67.1738 15.384C67.5898 15.128 67.7978 14.8 67.7978 14.4C67.7978 14.112 67.6858 13.88 67.4618 13.704C67.2378 13.528 66.8938 13.384 66.4297 13.272L64.1258 12.768C63.1018 12.544 62.3178 12.144 61.7738 11.568C61.2458 10.992 60.9818 10.264 60.9818 9.384C60.9818 8.536 61.1818 7.816 61.5818 7.224C61.9818 6.616 62.5498 6.144 63.2858 5.808C64.0378 5.472 64.9178 5.304 65.9258 5.304C66.9338 5.304 67.9018 5.472 68.8298 5.808C69.7578 6.128 70.5898 6.6 71.3258 7.224L69.5258 9.216C68.9018 8.736 68.2618 8.376 67.6058 8.136C66.9658 7.88 66.3338 7.752 65.7098 7.752C65.1338 7.752 64.6778 7.864 64.3418 8.088C64.0058 8.312 63.8378 8.616 63.8378 9C63.8378 9.304 63.9498 9.552 64.1738 9.744C64.4138 9.92 64.7978 10.064 65.3258 10.176L67.6058 10.68C68.6618 10.904 69.4698 11.304 70.0298 11.88C70.5898 12.456 70.8698 13.168 70.8698 14.016C70.8698 14.816 70.6378 15.536 70.1738 16.176C69.7098 16.816 69.0778 17.328 68.2778 17.712C67.4778 18.08 66.5738 18.264 65.5658 18.264ZM71.6707 18L75.2467 1.2L78.6068 0.48L77.3588 6.408C78.3828 5.672 79.5108 5.304 80.7428 5.304C81.7348 5.304 82.5668 5.536 83.2388 6C83.9268 6.448 84.4068 7.064 84.6788 7.848C84.9508 8.632 84.9828 9.528 84.7748 10.536L83.1908 18H79.9508L81.4868 10.848C81.6468 10.016 81.5348 9.352 81.1508 8.856C80.7668 8.344 80.1748 8.088 79.3748 8.088C78.8628 8.088 78.3828 8.184 77.9348 8.376C77.5028 8.568 77.1108 8.856 76.7588 9.24L74.8867 18H71.6707ZM90.1515 18.144C88.8555 18.144 87.8235 17.832 87.0555 17.208C86.2875 16.568 85.9035 15.72 85.9035 14.664C85.9035 13.8 86.1115 13.064 86.5275 12.456C86.9595 11.848 87.5675 11.376 88.3515 11.04C89.1355 10.704 90.0715 10.536 91.1595 10.536C91.7515 10.536 92.3355 10.592 92.9115 10.704C93.5035 10.816 94.0555 10.976 94.5675 11.184L94.7115 10.536C94.8875 9.688 94.7595 9.056 94.3275 8.64C93.9115 8.208 93.1915 7.992 92.1675 7.992C91.7035 7.992 91.1915 8.056 90.6315 8.184C90.0875 8.312 89.4235 8.52 88.6395 8.808L87.8475 6.336C88.7755 5.968 89.6555 5.704 90.4875 5.544C91.3195 5.368 92.1115 5.28 92.8635 5.28C94.1275 5.28 95.1675 5.488 95.9835 5.904C96.8155 6.32 97.3995 6.92 97.7355 7.704C98.0715 8.472 98.1195 9.4 97.8795 10.488L96.2955 18H93.1275L93.2715 17.232C92.7755 17.536 92.2715 17.768 91.7595 17.928C91.2475 18.072 90.7115 18.144 90.1515 18.144ZM91.2555 15.816C91.7035 15.816 92.1355 15.76 92.5515 15.648C92.9675 15.52 93.3595 15.344 93.7275 15.12L94.1355 13.296C93.3035 12.896 92.3915 12.696 91.3995 12.696C90.6475 12.696 90.0475 12.848 89.5995 13.152C89.1675 13.456 88.9515 13.864 88.9515 14.376C88.9515 14.824 89.1515 15.176 89.5515 15.432C89.9675 15.688 90.5355 15.816 91.2555 15.816ZM97.6616 22.896L101.358 5.496H104.55L104.406 6.144C105.318 5.6 106.294 5.328 107.334 5.328C108.39 5.328 109.334 5.584 110.166 6.096C110.998 6.608 111.662 7.304 112.158 8.184C112.654 9.048 112.902 10.024 112.902 11.112C112.902 12.104 112.718 13.024 112.35 13.872C111.998 14.72 111.502 15.472 110.862 16.128C110.238 16.768 109.502 17.272 108.654 17.64C107.822 18.008 106.918 18.192 105.942 18.192C105.206 18.192 104.518 18.072 103.878 17.832C103.238 17.576 102.678 17.232 102.198 16.8L100.878 22.896H97.6616ZM105.822 15.36C106.574 15.36 107.238 15.184 107.814 14.832C108.406 14.48 108.878 14.008 109.23 13.416C109.582 12.808 109.758 12.136 109.758 11.4C109.758 10.776 109.614 10.216 109.326 9.72C109.054 9.224 108.67 8.832 108.174 8.544C107.678 8.256 107.118 8.112 106.494 8.112C105.982 8.112 105.502 8.192 105.054 8.352C104.606 8.512 104.198 8.752 103.83 9.072L102.798 13.944C103.118 14.376 103.542 14.72 104.07 14.976C104.598 15.232 105.182 15.36 105.822 15.36ZM120.609 18.24C119.393 18.24 118.305 17.992 117.345 17.496C116.401 16.984 115.657 16.28 115.113 15.384C114.569 14.472 114.297 13.448 114.297 12.312C114.297 11.352 114.473 10.448 114.825 9.6C115.177 8.752 115.665 8.008 116.289 7.368C116.913 6.712 117.633 6.208 118.449 5.856C119.265 5.488 120.137 5.304 121.065 5.304C122.169 5.304 123.145 5.568 123.993 6.096C124.841 6.608 125.505 7.312 125.985 8.208C126.465 9.104 126.705 10.144 126.705 11.328C126.705 11.504 126.697 11.696 126.681 11.904C126.681 12.112 126.649 12.424 126.585 12.84H117.513C117.609 13.368 117.809 13.84 118.113 14.256C118.417 14.656 118.801 14.968 119.265 15.192C119.745 15.416 120.281 15.528 120.873 15.528C121.401 15.528 121.897 15.448 122.361 15.288C122.825 15.128 123.233 14.904 123.585 14.616L125.385 16.704C124.617 17.248 123.857 17.64 123.105 17.88C122.353 18.12 121.521 18.24 120.609 18.24ZM117.705 10.512H123.681C123.585 10.016 123.409 9.584 123.153 9.216C122.897 8.848 122.577 8.56 122.193 8.352C121.809 8.144 121.377 8.04 120.897 8.04C120.417 8.04 119.961 8.144 119.529 8.352C119.113 8.56 118.745 8.848 118.425 9.216C118.121 9.584 117.881 10.016 117.705 10.512Z" fill="#222222"/>
<path d="M0 24H127.449V26.4H0V24Z" fill="#222222"/>
</svg>
